# xmcd
#
# Track frame offsets:
#	150
#	11182
#	24451
#	37806
#	51263
#	64835
#	76616
#	88994
#	99729
#	110288
#	122630
#	131470
#	143385
#	163056
#	174698
#	189595
#	206799
#	223207
#	241853
#	252028
#	264417
#	275884
#
# Disc length: 3830 seconds
#
# Revision: 1
# Processed by: cddbd v1.5.2PL0 Copyright (c) Steve Scherf et al.
# Submitted via: audiograbber 1.83.01
#
DISCID=3a0ef416
DTITLE=Various Artist - Country Gold (Reader's Digest) [Disc 2]
DYEAR=2013
DGENRE=Country
TTITLE0=Glen Campbell - Try A Little Kindness
TTITLE1=Lynn Anderson - Rose Garden
TTITLE2=Conway Twitty - After All The Good Is Gone
TTITLE3=Patti Page - Tennessee Waltz
TTITLE4=David Houston - Almost Persuaded
TTITLE5=Patsy Cline - Walkin' After Midnight
TTITLE6=Merle Haggard - The Bottle Let Me Down
TTITLE7=The Everly Brothers - Bye Bye Love
TTITLE8=Jim Reeves - He'll Have To Go
TTITLE9=Jeanne Pruett - Satin Sheets
TTITLE10=Floyd Cramer - On The Rebound
TTITLE11=Brenda Lee - I'm Sorry
TTITLE12=Willie Nelson - Georgia On My Mind
TTITLE13=Crystal Gayle - Don't It Make My Brown Eyes Blue
TTITLE14=T. Graham Brown - Darlene
TTITLE15=Kenny Rogers - Lady
TTITLE16=Anne Murray - You Needed Me
TTITLE17=Johnny Cash - Sunday Mornin' Comin' Down
TTITLE18=Jimmie Rodgers - Honeycomb
TTITLE19=Freddy Fender - Wasted Days And Wasted Nights
TTITLE20=Frankie Laine - Mule Train
TTITLE21=Johnny Horton - The Battle Of New Orleans
EXTD=
EXTT0=
EXTT1=
EXTT2=
EXTT3=
EXTT4=
EXTT5=
EXTT6=
EXTT7=
EXTT8=
EXTT9=
EXTT10=
EXTT11=
EXTT12=
EXTT13=
EXTT14=
EXTT15=
EXTT16=
EXTT17=
EXTT18=
EXTT19=
EXTT20=
EXTT21=
PLAYORDER=
